PathFileType	4	(X/Y/Z)	C:\Users\WrightLab\Desktop\Jo\P2_Trial24.trc
DataRate	CameraRate	NumFrames	NumMarkers	Units	OrigDataRate	OrigDataStartFrame	OrigNumFrames
100.00	100.00	       19	19	mm	100.00	448	       597
Frame#	Time	Headset_Front			Headset_Back			Headset_Left			Headset_Right			Left_Shoulder			Right_Shoulder			Sternum			C7			Left Elbow			Right Elbow			Left Wrist			Right Wrist			Left ASIS			Right ASIS			S2			Left Knee			Right Knee			Left Ankle			Right Ankle			
		X1	Y1	Z1	X2	Y2	Z2	X3	Y3	Z3	X4	Y4	Z4	X5	Y5	Z5	X6	Y6	Z6	X7	Y7	Z7	X8	Y8	Z8	X9	Y9	Z9	X10	Y10	Z10	X11	Y11	Z11	X12	Y12	Z12	X13	Y13	Z13	X14	Y14	Z14	X15	Y15	Z15	X16	Y16	Z16	X17	Y17	Z17	X18	Y18	Z18	X19	Y19	Z19	

448	4.470	-114.02150	1575.18018	2170.13623	20.95995	1635.13342	2021.62622	55.14344	1472.24915	1986.99170	-207.46960	1613.23779	2058.74316				-268.55249	1453.48108	1933.46521	-112.75689	1341.07849	2015.49731				198.27940	1133.20654	1938.01404	-348.55661	1125.78894	1875.20667				-390.17740	874.50079	1911.28210	-32.68884	1049.57825	2030.50037	-158.20299	1015.53540	1993.90491	-2.23458	980.93628	1763.99512				-276.65210	573.85638	1942.93713	-121.94249	213.13158	2104.28003	30.34519	534.40833	2087.37231	
449	4.480	-114.59960	1580.99646	2177.39502	19.66789	1640.73462	2029.40173	55.45367	1475.48120	1994.95874	-208.57437	1616.68530	2065.16187				-268.95557	1457.08606	1943.42224	-112.14223	1344.69226	2024.08740				198.51288	1136.91663	1945.81519	-351.79578	1130.54163	1882.61462				-396.49707	879.63794	1916.21094	-32.40029	1053.73279	2039.21143	-158.53136	1019.62134	2004.68579	-4.43579	984.15582	1770.79248	-195.68300	219.35333	1820.23950	-280.33499	585.49097	1962.84680	-117.88400	213.32635	2103.55469	34.31139	532.72601	2085.89600	
450	4.490	-115.16709	1587.68030	2184.81055	18.79358	1645.76184	2036.58264	55.60234	1478.46326	2003.36890	-209.44722	1620.78516	2072.44751				-268.92905	1460.56848	1953.05688	-112.01952	1347.89026	2033.85461				199.07956	1140.48108	1952.82605	-355.56238	1135.61011	1888.34753				-402.73843	884.99792	1920.90039	-31.93773	1057.70300	2047.47559	-158.29749	1023.69678	2014.12317	-7.35716	988.36993	1779.44153	-208.29242	222.67549	1847.95361	-282.52283	596.43591	1980.77454	-114.66592	211.78246	2101.72241	38.21846	531.16675	2084.68994	
451	4.500	-115.76022	1594.45984	2191.80615	17.76520	1650.28113	2041.07263	56.11187	1481.10400	2011.36914	-210.32668	1624.36145	2078.35840				-269.10898	1464.58606	1963.65125	-111.58332	1351.24670	2043.37146				199.60416	1143.63318	1960.66150	-359.10468	1140.70276	1895.44983				-408.35397	889.86676	1926.39099	-31.98058	1060.96875	2056.86987	-158.07903	1026.44409	2023.95557	-10.22124	991.50446	1785.19177	-219.70036	223.50327	1873.29700	-282.66678	606.11163	1998.87378	-110.79406	210.57007	2101.55493	42.54840	527.72052	2081.61792	
452	4.510	-116.73351	1601.53821	2199.10303	17.20699	1655.43396	2048.43921	56.42075	1483.26160	2020.17407	-211.13753	1627.87549	2084.97363				-268.86066	1467.57959	1974.12573	-110.46165	1353.83069	2052.32935				200.03658	1146.51575	1966.88806	-362.82382	1145.17859	1902.96912				-414.24924	894.47595	1931.59717	-30.84941	1063.63745	2064.10547	-158.10831	1029.29431	2033.89783	-12.88571	995.26117	1792.01233	-231.20370	224.66798	1900.35840	-281.42593	614.79034	2015.46960	-107.04869	207.84435	2099.56396	46.95324	526.00421	2080.08813	
453	4.520	-117.14831	1608.28430	2205.76294	16.20249	1659.44385	2053.85547	57.28307	1485.54663	2027.99390	-211.84059	1631.69043	2091.14038				-268.52496	1470.87036	1985.06006	-110.13583	1356.24097	2062.77563				200.50073	1148.76685	1973.72864	-366.42157	1149.97205	1909.22803				-420.07794	899.23431	1936.84888	-29.91207	1065.67688	2071.86353	-158.05034	1032.35095	2043.48438	-16.23655	997.95459	1798.94958	-242.26660	226.42480	1927.19836	-279.94684	621.98962	2031.43677	-103.09547	205.63144	2099.99072	51.79648	522.67456	2076.54321	
454	4.530	-117.80553	1615.52588	2212.55029	15.76616	1664.38135	2060.20044	57.75635	1487.64404	2036.29236	-212.46898	1635.18030	2096.91064				-267.48337	1472.86792	1995.61865	-109.03789	1358.25647	2070.81763				200.97632	1150.95068	1980.38354	-370.20297	1154.33643	1915.62744				-425.70972	903.55164	1942.84131	-29.00832	1068.04517	2079.24146	-157.35484	1034.37036	2052.62646	-18.90468	998.99945	1806.97119	-253.35393	227.03366	1953.70593	-277.38095	628.97913	2046.71814	-99.96272	202.46700	2099.69385	56.31947	519.74670	2073.70215	
455	4.540	-117.97451	1622.12439	2218.66211				58.43339	1489.15430	2044.31177	-212.93645	1638.06458	2103.32764				-266.74075	1475.24292	2005.35144	-107.98163	1360.43018	2080.19897				201.76041	1152.63354	1989.64172	-373.28479	1158.58850	1922.83875				-431.43149	907.48621	1949.74902	-27.75836	1068.54321	2086.61377	-157.21181	1036.77197	2062.29053	-22.09982	1001.79010	1811.95081	-263.88733	226.10260	1980.20715	-274.98047	635.25110	2061.87622	-95.21323	199.82124	2099.82227	61.07253	515.53125	2068.15161	
456	4.550	-118.22626	1628.93225	2224.51074				59.57098	1490.25952	2051.57275	-213.44225	1640.58423	2108.42700				-266.15894	1476.85730	2015.92493	-106.45063	1361.83093	2089.83936				201.70525	1153.94800	1995.61487	-376.80096	1162.35803	1930.80310				-436.77390	911.54303	1955.42859	-26.45580	1068.90442	2093.67236	-155.97672	1037.14783	2070.01611	-25.45248	1002.77307	1819.12634	-274.86914	226.84576	2009.02441	-271.45972	640.34167	2076.30493	-91.49722	198.31540	2101.17700	66.29665	512.96124	2065.42993	
457	4.560	-118.42499	1635.62842	2230.54297				60.40047	1491.63550	2059.13281	-213.34976	1643.79688	2113.79053				-265.03223	1478.39001	2026.31384	-104.76253	1362.79321	2098.96167				201.84962	1155.41211	2002.23071	-380.23788	1165.86084	1938.83154				-441.54654	915.05688	1962.71362	-24.96602	1068.73438	2100.45850	-155.87076	1039.49365	2079.63843	-28.97844	1004.51154	1826.39221	-284.87747	226.48409	2034.84155	-268.48001	643.87219	2089.57593	-87.66660	194.95293	2102.36621	69.97813	509.73303	2059.77002	
458	4.570	-118.68323	1641.52197	2236.56445				61.45637	1492.96411	2066.35522	-213.79674	1646.40015	2119.70459				-264.06680	1479.77173	2037.71997	-103.14301	1363.40649	2106.85229				202.18675	1156.19568	2009.06506	-383.07684	1169.51660	1946.93567				-446.35297	918.56403	1969.67102	-23.74004	1068.68555	2107.35059	-155.05302	1039.76270	2087.63501				-294.54303	224.41330	2060.91919	-265.11118	646.73950	2102.27393	-83.24868	192.73761	2103.73438	72.25536	508.04703	2054.64380	
459	4.580	-118.59158	1646.83691	2241.93237				62.79491	1494.01099	2073.12354	-213.70468	1648.82166	2124.56787				-262.96979	1480.36108	2047.42529	-101.33658	1363.78516	2114.87280				202.44778	1157.03918	2015.97253	-386.53696	1172.38342	1955.40930				-451.22330	921.81726	1977.31494	-22.23160	1067.57642	2113.80981	-154.26404	1040.26038	2095.86060				-303.76157	223.70705	2088.20313	-262.06821	647.62933	2114.47046	-77.43118	189.89845	2104.15845	72.56715	506.20694	2048.51392	
460	4.590	-118.12807	1651.29724	2246.73438				63.98575	1495.11157	2079.81934	-213.50258	1650.74438	2130.54102				-261.92792	1481.13733	2057.96753	-99.31773	1364.16516	2123.19263				202.88443	1157.48804	2023.31580	-388.95630	1174.66711	1965.99438				-455.78622	924.77356	1984.84070	-21.07256	1066.93738	2121.09326	-153.75096	1040.69348	2104.21509				-311.41248	223.01433	2114.60645	-258.54453	648.08136	2125.07178	-71.37556	187.83910	2105.19751	71.87551	504.56985	2043.53979	
461	4.600	-117.91539	1655.44006	2252.17944				65.44962	1496.00208	2085.85352	-213.38701	1651.60437	2135.49683				-260.26343	1481.81067	2067.98267	-97.12373	1364.38599	2131.79175				203.12653	1157.45007	2030.28259	-391.78278	1176.79956	1975.45850				-459.76917	927.08282	1993.61633	-19.91781	1066.01245	2127.56372	-153.11020	1041.48474	2113.00171				-317.58594	223.63632	2143.04272	-255.19398	646.34521	2134.84717	-65.25102	186.37747	2106.64111	69.77882	505.34189	2041.22705	
462	4.610	-117.27118	1659.04443	2256.94434				66.36967	1496.91345	2092.64063	-213.24924	1653.56311	2140.80835				-259.13123	1481.67798	2077.58911	-94.87092	1364.61377	2139.41113				203.57884	1157.49060	2038.39148	-393.47885	1178.57715	1985.19592				-463.07458	929.56976	2001.91174	-18.67553	1065.34668	2133.31177	-152.12999	1041.03845	2120.96021				-322.84012	224.07306	2170.38232	-251.64613	645.28149	2146.20923	-58.30949	184.45682	2106.41382	65.93841	504.74091	2039.98376	
463	4.620	-117.15851	1662.12366	2262.47559	14.67782	1682.37646	2105.12231	67.86139	1497.32751	2097.81934	-212.69823	1654.57104	2146.56152				-257.82611	1482.11475	2087.53101	-92.28201	1365.20398	2147.19604				204.03882	1157.38879	2046.22559	-395.98865	1179.80029	1995.92200				-466.59665	931.04950	2011.34167	-17.71633	1064.78772	2139.25610	-151.78288	1041.74475	2130.66821				-326.35339	225.11549	2199.19067	-248.79248	641.61566	2154.00415	-51.12596	181.03055	2105.55225	61.42778	502.67273	2037.84546	
464	4.630	-116.24001	1664.28687	2267.17432				68.48207	1497.88281	2102.50146	-212.55762	1655.73218	2151.91187				-256.78522	1482.17932	2098.49878	-90.32513	1366.15735	2154.85889				204.39105	1156.72131	2053.24292	-397.43011	1181.23962	2006.30688				-469.44095	932.85687	2020.10254	-16.18223	1064.53149	2143.94336	-150.62456	1041.96606	2138.30933				-328.48566	227.01268	2228.23486	-245.04915	637.31323	2162.33154	-44.39429	177.89563	2104.01611	58.54055	504.06409	2038.50537	
465	4.640	-115.48524	1666.48987	2272.72998				69.62959	1498.36755	2106.52246	-211.77788	1656.06506	2156.83154				-255.32137	1481.70239	2107.51685	-88.33436	1365.94275	2161.80493				204.58685	1155.94067	2060.93164	-398.33258	1181.89465	2017.28064				-472.02643	933.99945	2030.39124	-15.04825	1064.87378	2149.81250	-149.61490	1041.88538	2146.57178				-330.03629	229.97618	2255.82227	-241.59601	632.88922	2170.22021	-37.56838	174.75592	2102.05762	54.48795	503.65305	2038.01196	
466	4.650	-114.63069	1667.99170	2277.86328				71.08835	1499.06018	2111.00244	-211.07027	1656.53003	2162.33740				-254.53835	1481.93457	2117.09570	-86.20660	1366.22229	2168.05127				204.43257	1155.64441	2069.08203	-399.43295	1182.19019	2028.73694				-473.79657	934.53949	2040.50366	-13.98847	1065.42590	2156.11914	-147.74760	1042.14917	2154.30298				-329.93573	232.36198	2283.05103	-238.22089	627.46259	2175.73975	-29.17493	168.76727	2098.23462	49.78109	504.15439	2036.71472	
